<svg width="36" height="34" viewBox="0 0 36 34" fill="none" xmlns="http://www.w3.org/2000/svg">
<path d="M16.6264 27.8637L16.978 27.532L16.6584 27.1694C15.8029 26.1988 14.9634 25.1453 14.1731 24.0421L14.0407 23.8573L13.8143 23.8356C12.4889 23.7088 11.1714 23.5111 9.86714 23.2435L9.39258 23.1462L9.28027 23.6174C8.84737 25.4339 8.70385 26.9954 8.81459 28.1979C8.92105 29.3541 9.28049 30.3428 10.0327 30.7661C10.7845 31.214 11.8302 31.0321 12.8915 30.5463C13.9943 30.0414 15.2765 29.1372 16.6264 27.8637ZM11.418 19.6695L10.8927 18.7458L10.5158 19.7393L10.5102 19.754C10.3308 20.2271 10.1387 20.7334 10.0149 21.2287L9.89041 21.7267L10.3915 21.8381C10.8577 21.9417 11.3713 22.0271 11.887 22.1103L12.9367 22.2796L12.3976 21.3632L11.8995 20.5163L11.418 19.6695ZM22.8018 19.7463L22.8019 19.7463L22.8066 19.7376L24.1566 17.2376L24.2849 17L24.1566 16.7624L22.8066 14.2624L22.8067 14.2624L22.8018 14.2537C22.4655 13.6597 22.1073 13.0986 21.7676 12.5666C21.5972 12.2997 21.4314 12.0402 21.2755 11.7874L21.1384 11.5653L20.8777 11.5508C19.9638 11.5 19.0023 11.5 18.0082 11.5H18H17.9917C16.9977 11.5 16.0361 11.5 15.1222 11.5508L14.8616 11.5653L14.7245 11.7874C14.5685 12.0402 14.4028 12.2997 14.2324 12.5666C13.8927 13.0986 13.5344 13.6597 13.1982 14.2537L13.1981 14.2536L13.1934 14.2624L11.8434 16.7624L11.7151 17L11.8434 17.2376L13.1934 19.7376L13.1933 19.7376L13.1982 19.7463C13.5344 20.3403 13.8927 20.9014 14.2324 21.4334C14.4028 21.7003 14.5685 21.9598 14.7245 22.2126L14.8616 22.4347L15.1222 22.4492C16.0361 22.5 16.9977 22.5 17.9917 22.5H18H18.0082C19.0023 22.5 19.9638 22.5 20.8777 22.4492L21.1384 22.4347L21.2755 22.2126C21.4314 21.9598 21.5972 21.7003 21.7676 21.4334C22.1073 20.9014 22.4655 20.3403 22.8018 19.7463ZM18.3784 7.97319L18 7.53503L17.6216 7.97319C17.6086 7.98815 17.5957 8.00317 17.5826 8.01825C17.2786 8.37022 16.947 8.75404 16.6149 9.20238L16.024 10H17.0166H18.9833H19.9759L19.3851 9.20238C19.053 8.75406 18.7214 8.37025 18.4173 8.01829C18.4043 8.0032 18.3913 7.98817 18.3784 7.97319ZM17.6216 26.0268L18 26.465L18.3784 26.0268L18.4173 25.9817C18.7214 25.6298 19.053 25.246 19.3851 24.7976L19.9759 24H18.9833H17.0166H16.024L16.6149 24.7976C16.947 25.246 17.2786 25.6298 17.5827 25.9818L17.6216 26.0268ZM19.3735 6.1363L19.0219 6.46799L19.3415 6.8306C20.197 7.80124 21.0366 8.85474 21.8269 9.95786L21.959 10.1423L22.1848 10.1643C23.5354 10.2961 24.8675 10.4935 26.1316 10.7562L26.6071 10.855L26.7197 10.3826C27.1526 8.56626 27.2962 7.00434 27.1832 5.80116C27.0746 4.64469 26.7105 3.65685 25.9507 3.23393C25.573 3.00643 25.12 2.94585 24.6516 2.99315C24.178 3.04097 23.6562 3.20151 23.1061 3.45387C22.0056 3.95873 20.7234 4.86282 19.3735 6.1363ZM24.582 14.3305L25.1073 15.2542L25.4841 14.2607L25.4897 14.2459C25.6692 13.7729 25.8612 13.2666 25.9851 12.7713L26.1096 12.2733L25.6084 12.1619C25.1422 12.0583 24.6287 11.9729 24.1129 11.8897L23.0633 11.7204L23.6023 12.6368L24.1005 13.4837L24.582 14.3305ZM26.7006 1.91672L26.7019 1.91745C27.7498 2.51622 28.3735 3.62085 28.6034 5.1613C28.834 6.70685 28.6559 8.63284 28.1472 10.7498L28.0362 11.2117L28.4917 11.3462C30.5757 11.9616 32.3294 12.7676 33.5517 13.7375C34.7699 14.7042 35.4166 15.7947 35.4166 17C35.4166 18.2053 34.7699 19.2958 33.5517 20.2625C32.3294 21.2324 30.5757 22.0384 28.4917 22.6538L28.0362 22.7883L28.1472 23.2502C28.6559 25.3672 28.834 27.2931 28.6034 28.8387C28.3735 30.3791 27.7498 31.4838 26.7019 32.0825L26.7006 32.0833C25.6597 32.6821 24.3927 32.6673 22.9463 32.0954C21.4954 31.5218 19.92 30.4059 18.3449 28.9047L18 28.5759L17.655 28.9047C16.08 30.4059 14.5046 31.5217 13.0518 32.0954C11.6041 32.667 10.3321 32.6826 9.28209 32.0829C8.24276 31.4847 7.62261 30.3804 7.39459 28.8393C7.16586 27.2934 7.34409 25.3671 7.85281 23.2502L7.96379 22.7883L7.50824 22.6538C5.42421 22.0384 3.67054 21.2324 2.44828 20.2625C1.23003 19.2958 0.583313 18.2053 0.583313 17C0.583313 15.7947 1.23003 14.7042 2.44828 13.7375C3.67054 12.7676 5.42421 11.9616 7.50824 11.3462L7.96379 11.2117L7.85281 10.7498C7.34409 8.63292 7.16586 6.70663 7.39459 5.16068C7.62261 3.6196 8.24275 2.51531 9.28207 1.91706C10.3321 1.31736 11.6041 1.33304 13.0518 1.90464C14.5046 2.47829 16.08 3.59408 17.655 5.09527L18 5.42407L18.3449 5.09527C19.92 3.59407 21.4954 2.47821 22.9463 1.90456C24.3927 1.33269 25.6597 1.31785 26.7006 1.91672ZM26.0113 16.7936L25.9177 17L26.0113 17.2064C26.5719 18.4431 27.0649 19.6762 27.475 20.9229L27.6272 21.3855L28.0937 21.2456C29.8763 20.7108 31.2975 20.0534 32.2849 19.3538C33.2396 18.6774 33.9166 17.8676 33.9166 17C33.9166 16.1324 33.2396 15.3226 32.2849 14.6462C31.2975 13.9466 29.8763 13.2892 28.0937 12.7544L27.6272 12.6145L27.475 13.0771C27.0649 14.3238 26.5719 15.5569 26.0113 16.7936ZM9.9887 17.2064L10.0823 17L9.9887 16.7936C9.42808 15.5569 8.93504 14.3238 8.52494 13.0771L8.37277 12.6145L7.90631 12.7544C6.12368 13.2892 4.70248 13.9466 3.71509 14.6462C2.76035 15.3226 2.08331 16.1324 2.08331 17C2.08331 17.8676 2.76035 18.6774 3.71509 19.3538C4.70248 20.0534 6.12368 20.7108 7.90631 21.2456L8.37277 21.3855L8.52494 20.9229C8.93504 19.6762 9.42808 18.4431 9.9887 17.2064ZM23.6023 21.3632L23.0633 22.2796L24.1129 22.1103C24.6287 22.0271 25.1422 21.9417 25.6084 21.8381L26.1096 21.7267L25.9851 21.2287C25.8612 20.7334 25.6692 20.2271 25.4897 19.7541L25.4841 19.7393L25.1073 18.7458L24.582 19.6695L24.1005 20.5163L23.6023 21.3632ZM19.3415 27.1694L19.0219 27.532L19.3735 27.8637C20.7234 29.1372 22.0056 30.0413 23.1061 30.5461C23.6562 30.7985 24.178 30.959 24.6516 31.0068C25.1201 31.0541 25.573 30.9936 25.9507 30.7661C26.7105 30.3431 27.0746 29.3553 27.1832 28.1988C27.2962 26.9957 27.1526 25.4337 26.7197 23.6174L26.6071 23.145L26.1316 23.2438C24.8675 23.5065 23.5354 23.7039 22.1848 23.8357L21.959 23.8577L21.8269 24.0421C21.0366 25.1453 20.197 26.1988 19.3415 27.1694ZM12.3976 12.6368L12.9367 11.7204L11.887 11.8897C11.3713 11.9729 10.8577 12.0583 10.3915 12.1619L9.89041 12.2733L10.0149 12.7713C10.1387 13.2666 10.3308 13.7729 10.5102 14.2459L10.5158 14.2607L10.8927 15.2542L11.418 14.3305L11.8995 13.4837L12.3976 12.6368ZM16.6584 6.8306L16.978 6.46799L16.6264 6.1363C15.2765 4.86282 13.9943 3.95862 12.8915 3.45371C11.8302 2.96784 10.7845 2.78596 10.0327 3.23394C9.28049 3.65724 8.92105 4.64592 8.81459 5.80207C8.70385 7.00463 8.84737 8.56613 9.28027 10.3826L9.39258 10.8538L9.86714 10.7565C11.1714 10.4889 12.489 10.2912 13.8143 10.1644L14.0407 10.1427L14.1731 9.95786C14.9634 8.85474 15.8029 7.80124 16.6584 6.8306ZM18 14.35C19.437 14.35 20.6166 15.5227 20.6166 17C20.6166 18.3888 19.4422 19.5833 18 19.5833C16.5577 19.5833 15.3833 18.3888 15.3833 17C15.3833 15.5227 16.5629 14.35 18 14.35Z" fill="white" stroke="white"/>
</svg>
